<?xml version="1.0" standalone="no"?>
<!DOCTYPE svg PUBLIC "-//W3C//DTD SVG 20010904//EN"
 "http://www.w3.org/TR/2001/REC-SVG-20010904/DTD/svg10.dtd">
<svg version="1.0" xmlns="http://www.w3.org/2000/svg"
 width="700.000000pt" height="700.000000pt" viewBox="0 0 700.000000 700.000000"
 preserveAspectRatio="xMidYMid meet">
<metadata>
Created by potrace 1.14, written by Peter Selinger 2001-2017
</metadata>
<g transform="translate(0.000000,700.000000) scale(0.100000,-0.100000)"
fill="#000000" stroke="none">
<path d="M965 6993 c-134 -16 -295 -70 -410 -136 -299 -172 -497 -464 -544
-801 -15 -108 -15 -5004 0 -5112 62 -446 378 -794 833 -917 l81 -22 2520 -3
c1762 -2 2545 0 2603 8 487 63 874 447 941 934 15 108 15 5004 0 5112 -67 484
-449 866 -933 933 -54 8 -843 11 -2569 10 -1371 -1 -2505 -4 -2522 -6z m1596
-1353 c249 -150 888 -571 1015 -670 21 -16 21 -17 -103 -195 -68 -99 -130
-179 -136 -179 -7 1 -79 50 -162 109 -246 177 -791 532 -953 622 -29 15 -50
33 -48 39 6 15 230 364 234 364 2 0 70 -41 153 -90z m-834 -1219 c316 -179
989 -599 1047 -652 10 -9 -230 -379 -246 -379 -5 0 -59 35 -121 78 -243 170
-805 521 -1016 635 l-51 27 122 185 c68 101 124 185 125 185 1 0 64 -35 140
-79z m3903 -195 l129 -219 -56 -81 c-379 -545 -870 -1044 -1444 -1468 -582
-431 -1112 -697 -1849 -930 -132 -41 -535 -148 -560 -148 -5 0 -203 332 -257
432 -2 4 6 9 19 12 365 74 597 133 863 221 687 228 1254 545 1840 1031 72 59
236 214 365 343 317 317 524 575 723 898 45 73 86 132 90 130 4 -1 66 -101
137 -221z"/>
</g>
</svg>
