<svg width="128" height="128" viewBox="0 0 128 128" fill="none" xmlns="http://www.w3.org/2000/svg">
<rect width="128" height="128" rx="20" fill="#19212C"/>
<path d="M44 23.2L39.6 30C45.4 33.3 56.3 40.5 61.1 44.2L65.8 37.4C61.4 34.2 49.9 26.5 44 23.2ZM29 94.7L33.7 102.8C42.9 100.9 56.7 96.3 66.8 90.4C82.8 81 96.6 68.1 105.3 54.7L100.4 46.4C92.4 60.5 79.2 73.6 62.6 83.1C52.4 88.8 40 92.8 29 94.7ZM29 45.7L24.5 52.5C30.6 55.7 41.4 62.6 46.3 66.2L50.9 59.2C46.6 56.1 34.9 48.9 29 45.7Z" fill="#EAEAEA"/>
</svg>
